<?xml version="1.0" standalone="no"?>
<!DOCTYPE svg PUBLIC "-//W3C//DTD SVG 20010904//EN"
 "http://www.w3.org/TR/2001/REC-SVG-20010904/DTD/svg10.dtd">
<svg version="1.0" xmlns="http://www.w3.org/2000/svg"
 width="512.000000pt" height="512.000000pt" viewBox="0 0 512.000000 512.000000"
 preserveAspectRatio="xMidYMid meet">
<metadata>
Created by potrace 1.14, written by Peter Selinger 2001-2017
</metadata>
<g transform="translate(0.000000,512.000000) scale(0.100000,-0.100000)"
fill="#000000" stroke="none">
<path d="M724 5109 c-261 -44 -503 -218 -622 -447 -43 -83 -80 -189 -90 -262
-4 -25 -7 -862 -7 -1860 l0 -1815 23 -83 c82 -301 297 -519 605 -615 l72 -22
1830 -2 c1998 -3 1871 -6 2033 53 248 90 454 319 524 584 l23 85 0 1825 c0
1004 -4 1845 -8 1870 -32 172 -130 346 -268 474 -97 89 -262 178 -374 200 -16
4 -41 10 -55 13 -36 11 -3625 12 -3686 2z m3604 -423 c120 -14 261 -115 317
-226 52 -103 51 -40 50 -1900 -1 -954 -5 -1757 -9 -1785 -21 -142 -145 -280
-296 -331 -53 -17 -129 -18 -1800 -19 -960 0 -1770 3 -1800 8 -122 18 -257
113 -311 220 -54 105 -51 1 -51 1892 0 962 3 1770 7 1795 4 24 10 49 13 55 4
5 7 15 8 21 4 28 63 113 107 156 46 44 128 92 179 105 13 3 55 7 93 10 39 2
73 5 78 6 21 5 3368 -2 3415 -7z"/>
<path d="M1411 3826 c-48 -17 -105 -77 -120 -125 -7 -26 -11 -98 -10 -191 1
-139 3 -154 26 -201 39 -77 86 -103 188 -104 69 0 85 3 115 25 53 37 68 59 87
123 15 53 18 57 47 58 30 0 570 0 593 -1 8 0 11 -214 11 -843 0 -464 -3 -848
-6 -854 -4 -5 -25 -13 -46 -16 -154 -24 -215 -234 -103 -352 61 -63 85 -67
390 -63 258 3 263 3 305 28 129 73 132 280 6 360 -27 16 -59 30 -73 30 -15 0
-31 4 -37 8 -7 5 -10 261 -10 855 l0 847 50 1 c50 0 546 0 577 -1 11 0 16 -10
17 -30 4 -157 235 -241 354 -127 60 57 63 71 63 273 l0 182 -30 43 c-16 23
-48 52 -70 63 -40 21 -45 21 -1165 23 -874 1 -1133 -1 -1159 -11z"/>
</g>
</svg>
